<?xml version="1.0" encoding="utf-8"?>
<!-- Generator: Adobe Illustrator 24.3.0, SVG Export Plug-In . SVG Version: 6.00 Build 0)  -->
<svg version="1.1" id="Layer_1" xmlns="http://www.w3.org/2000/svg" xmlns:xlink="http://www.w3.org/1999/xlink" x="0px" y="0px"
	 viewBox="0 0 358 382.9" style="enable-background:new 0 0 358 382.9;" xml:space="preserve">
<style type="text/css">
	.st0{fill:#FFFFFF;}
</style>
<g>
	<g>
		<g>
			<path class="st0" d="M191.3,225.1c-0.1-0.4,0.1-0.9,0.5-1l113.1-34l-0.4-1.7l-113.9,33.8l113.1-34.9l-5.6-3.3
				c-7.5,1.6-22.8,4.7-41.1,8c-25.1,4.6-62.6,8-78.1,27.2c-15.5-19.2-53-22.6-78.1-27.2c-18.2-3.4-33.5-6.5-41.1-8l-5.6,3.3
				l113.1,34.9L53.5,188.4l-0.4,1.7l113.1,34c0.4,0.1,0.7,0.6,0.5,1l-0.9,3.1c-0.5,1.7,0.8,3.3,2.5,3.3H179h10.7
				c1.7,0,3-1.7,2.5-3.3L191.3,225.1z"/>
		</g>
		<path class="st0" d="M227.7,133.1c-0.1,0-0.1,0-0.2,0h-23.8l21.8-1.3c2.1-0.1,3.9-1.3,4.9-3.1c2.8-5.2,4.5-11.8,3.4-19.9
			C231,89,197.7,69.1,184.2,58.3c0-0.2,0-0.3,0-0.5c0-1.6-0.8-3.1-2-4c-1.1-0.8-1.8-2.1-1.9-3.4l-0.5-5.3c0.6-0.3,1-0.9,1-1.6v-0.1
			c0.5-0.1,1.1-0.2,1.6-0.3c6.1-1.7,10-7.4,9.6-13.5l0,0l0,0c0,0.1,0,0.2-0.1,0.4c-0.9,4.2-4.2,7.7-8.8,8.5
			c-5.3,0.9-10.6-2.2-12.3-7.3c-1.8-5.5,1-11.4,6.1-13.5h-0.1c-7.1,1.1-12,8-10.8,15c1,5.9,5.7,10,11.1,10.7v0.1
			c0,0.7,0.4,1.3,1,1.6l-0.5,5.3c-0.1,1.4-0.8,2.6-1.9,3.4c-1.2,0.9-2,2.4-2,4c0,0.2,0,0.3,0,0.5c-13.5,10.8-46.8,30.7-49.6,50.5
			c-1.1,8.1,0.6,14.7,3.4,19.9c1,1.8,2.8,3,4.9,3.1l21.8,1.3h-23.8c-0.1,0-0.1,0-0.2,0c-5.1,1.1-8.8,5.7-8.8,11v47.7
			c2.1,0.4,4.1,0.7,6.2,1.1v-19.3c0-7.8,5.9-11,8.4-12.2s2.9-2.7,2.9-2.7s0.4,1.5,2.9,2.7c2.5,1.1,8.5,4.4,8.5,12.2v24.8
			c2.6,0.8,5.1,1.7,7.5,2.7V173c0-14.4,10.9-20.4,15.6-22.5c4.7-2.1,5.4-4.9,5.4-4.9s0.7,2.8,5.4,4.9c4.7,2.1,15.6,8.1,15.6,22.5
			v28.1c2.4-1,4.9-1.9,7.5-2.7v-24.8c0-7.8,5.9-11,8.5-12.2c2.5-1.2,2.9-2.7,2.9-2.7s0.4,1.5,2.9,2.7c2.5,1.1,8.4,4.4,8.4,12.2V193
			c2.1-0.4,4.1-0.8,6.2-1.1v-47.7C236.4,138.9,232.8,134.3,227.7,133.1z"/>
		<polygon class="st0" points="180.1,26.6 179.6,29.7 182.3,28.3 185.1,29.7 184.6,26.6 186.8,24.4 183.7,24 182.3,21.2 180.9,24 
			177.8,24.4 		"/>
		<path class="st0" d="M110.4,100.1h-1.9v-29h-0.1c0.2-0.1,0.3-0.3,0.5-0.5c0.7-1.3,1.1-3,0.8-5c-0.8-5.8-12.2-11.6-13.6-13.8
			c-1.3,2.1-12.8,8-13.6,13.8c-0.3,2,0.1,3.7,0.8,5c0.1,0.2,0.3,0.4,0.4,0.5h-0.1v29h-1.9c-1,0-1.8,0.8-1.8,1.8v9.2
			c0,1.9,1,3.7,2.7,4.7l1,0.5V185c5.3,1,11.1,2.1,17.2,3.2c2.4,0.4,5,0.9,7.6,1.3v-73.2l1-0.5c1.7-1,2.7-2.8,2.7-4.7v-9.2
			C112.2,100.9,111.4,100.1,110.4,100.1z M90.9,100.1h-4.3V79.6c0-1.2,1-2.2,2.2-2.2c0.6,0,1.1,0.2,1.5,0.6s0.6,0.9,0.6,1.5
			C90.9,79.5,90.9,100.1,90.9,100.1z M98.3,100.1H94V79.6c0-1.2,1-2.2,2.2-2.2l0,0c1.2,0,2.2,1,2.2,2.2L98.3,100.1L98.3,100.1z
			 M105.7,100.1h-4.3V79.6c0-1.2,1-2.2,2.2-2.2c0.6,0,1.1,0.2,1.5,0.6s0.6,0.9,0.6,1.5C105.7,79.5,105.7,100.1,105.7,100.1z"/>
		<path class="st0" d="M276.2,100.1h-1.9v-29h-0.1c0.2-0.1,0.3-0.3,0.4-0.5c0.7-1.3,1.1-3,0.8-5c-0.8-5.8-12.2-11.6-13.6-13.8
			c-1.4,2.1-12.8,8-13.6,13.8c-0.3,2,0.1,3.7,0.8,5c0.1,0.2,0.3,0.4,0.5,0.5h-0.1v29h-1.9c-1,0-1.8,0.8-1.8,1.8v9.2
			c0,1.9,1,3.7,2.7,4.7l1,0.5v73.2c2.6-0.4,5.2-0.9,7.6-1.3c6.1-1.1,11.9-2.2,17.2-3.2v-68.7l1-0.5c1.7-1,2.7-2.8,2.7-4.7v-9.2
			C278,100.9,277.2,100.1,276.2,100.1z M256.7,100.1h-4.3V79.6c0-1.2,1-2.2,2.2-2.2c0.6,0,1.1,0.2,1.5,0.6s0.6,0.9,0.6,1.5V100.1z
			 M264,100.1h-4.3V79.6c0-1.2,1-2.2,2.2-2.2l0,0c1.2,0,2.2,1,2.2,2.2v20.5H264z M271.4,100.1h-4.3V79.6c0-1.2,1-2.2,2.2-2.2
			c0.6,0,1.1,0.2,1.5,0.6s0.6,0.9,0.6,1.5L271.4,100.1L271.4,100.1z"/>
		<path class="st0" d="M97.9,49c0,1-0.8,1.8-1.8,1.8S94.3,50,94.3,49s0.8-1.8,1.8-1.8C97.1,47.3,97.9,48.1,97.9,49z"/>
		<path class="st0" d="M263.7,49c0,1-0.8,1.8-1.8,1.8s-1.8-0.8-1.8-1.8s0.8-1.8,1.8-1.8C262.9,47.3,263.7,48.1,263.7,49z"/>
	</g>
	<g>
		<path class="st0" d="M46.3,261.7c7,0,11.9,3.7,14.7,11.1c0.3,1.7,0.5,3,0.5,3.9c0,6.2-3.5,10.8-10.6,13.7
			c-1.8,0.5-3.5,0.7-4.8,0.7c-6.7,0-11.5-3.5-14.5-10.4l-0.2-1h-0.7c-3.9,0.7-5.8,2.7-5.8,5.8v8.4c0,3-2.3,5.7-7,8.2l-0.2-0.5v-15.2
			c0-7.1,3.5-11.7,10.6-13.7c1.4-0.2,2.5-0.2,3.4-0.2c0-2.5,2.2-5.3,6.5-8.7C41,262.4,43.7,261.7,46.3,261.7z M38.9,276.6
			c0,4.2,2.5,6.6,7.5,7.2c4.8-0.7,7.2-3.1,7.2-7.2v-0.5c0-4.2-2.5-6.6-7.5-7.2c-3.7,0-6.1,2.1-7.2,6.3V276.6z"/>
		<path class="st0" d="M73.3,248.7l0.2,0.5v28c0.7,3.9,2.7,5.8,5.8,5.8h3.1c0.3,0,0.5,0.2,0.5,0.5v6.3c0,0.3-0.2,0.5-0.5,0.5h-2.2
			c-7.1,0-11.7-3.5-13.7-10.6c-0.2-1.4-0.2-2.5-0.2-3.4V257C66.4,253.9,68.7,251.2,73.3,248.7z"/>
		<path class="st0" d="M100.3,261.6c7,0,11.9,3.7,14.7,11.1c0.3,1.7,0.5,3,0.5,3.9c0,6.2-3.5,10.8-10.6,13.7
			c-1.8,0.5-3.5,0.7-4.8,0.7c-1,0-3-0.3-5.8-1H81.1c-0.3,0-0.5-0.2-0.5-0.5v-6.3c0-0.3,0.2-0.5,0.5-0.5h5.3c-1-2.8-1.4-5.1-1.4-6.8
			c0-6.5,3.8-11.2,11.3-14C98.3,261.8,99.6,261.6,100.3,261.6z M92.9,276.6c0,4.2,2.5,6.6,7.5,7.2c4.8-0.7,7.2-3.1,7.2-7.2v-0.5
			c0-4.2-2.5-6.6-7.5-7.2c-3.7,0-6.1,2.1-7.2,6.3V276.6z"/>
		<path class="st0" d="M155.1,248.7l0.2,0.5v27c0,6.8-3.4,11.3-10.1,13.5c-1.5,0.3-2.7,0.5-3.6,0.5h-20.7c-0.3,0-0.5-0.2-0.5-0.7
			c2.5-4.3,5.1-6.5,8-6.5h5.8v-0.2c-3.3-9.1-5.3-15.3-6-18.6c0-2.7,1.4-5.2,4.1-7.5c0.4,0,2,4,4.8,12.1c3.1,9.5,4.7,14.2,5.1,14.2
			h0.2c3.9-0.7,5.8-2.7,5.8-5.8v-20.3C148.1,253.9,150.4,251.2,155.1,248.7z M132.4,292.1h3.4l0.5,0.2c-0.5,2.2-2.5,3.4-5.8,3.4
			c-1.8,0.4-2.7,1.6-2.7,3.4c0.3,2.2,1.2,3.4,2.9,3.4h2.9c1.8,0,3.1,1,3.9,3.1l-0.5,0.2h-14.2c-0.3,0-0.5-0.2-0.5-0.5v-2.4
			c0-0.3,0.2-0.5,0.5-0.5h2.9c-0.5-0.9-0.8-2-1-3.4C124.6,294.8,127.2,292.5,132.4,292.1z"/>
		<path class="st0" d="M167.1,248.9l0.2,0.5v40.3c0,0.3-0.2,0.5-0.5,0.5h-6.3c-0.3,0-0.5-0.2-0.5-0.5v-32.5
			C160.1,254.1,162.5,251.4,167.1,248.9z"/>
		<path class="st0" d="M209.2,260.7c7,0,11.9,3.7,14.7,11.1c0.3,1.7,0.5,3,0.5,3.9c0,6.2-3.5,10.8-10.6,13.7
			c-1.8,0.5-3.5,0.7-4.8,0.7c-6,0-10.6-2.9-13.7-8.7c-1-2-1.4-4.1-1.4-6.3c0-6.5,3.8-11.2,11.3-14
			C207.1,260.9,208.5,260.7,209.2,260.7z M204.4,251.9c0.7,0.7,1.1,1.5,1.1,2.4c0,1-0.4,1.9-1.1,2.5c-0.8,0.7-1.6,1.1-2.6,1.1
			c-1.1,0-1.9-0.4-2.6-1.1c-0.7-0.6-1.1-1.5-1.1-2.5c0-0.9,0.4-1.8,1.1-2.6c0.8-0.6,1.6-0.8,2.6-0.8
			C202.7,250.9,203.6,251.3,204.4,251.9z M201.7,275.7c0,4.2,2.5,6.6,7.5,7.2c4.8-0.7,7.2-3.1,7.2-7.2v-0.5c0-4.2-2.5-6.6-7.5-7.2
			c-3.7,0-6.1,2.1-7.2,6.3V275.7z M215.8,251.9c0.7,0.7,1.1,1.5,1.1,2.4c0,1-0.4,1.9-1.1,2.5c-0.8,0.7-1.6,1.1-2.6,1.1
			c-1.1,0-1.9-0.4-2.6-1.1c-0.7-0.6-1.1-1.5-1.1-2.5c0-0.9,0.4-1.8,1.1-2.6c0.8-0.6,1.6-0.8,2.6-0.8
			C214.2,250.9,215,251.3,215.8,251.9z"/>
		<path class="st0" d="M240.5,232.4h3.4l0.5,0.2c-0.5,2.3-2.5,3.4-5.8,3.4c-1.8,0.4-2.7,1.6-2.7,3.4c0.3,2.3,1.2,3.4,2.9,3.4h2.9
			c1.8,0,3.1,1,3.9,3.1l-0.5,0.2h-14.2c-0.3,0-0.5-0.2-0.5-0.5v-2.4c0-0.3,0.2-0.5,0.5-0.5h2.9c-0.5-0.9-0.8-2-1-3.4
			C232.8,235.2,235.4,232.9,240.5,232.4z M241.6,248.9l0.2,0.5v40.3c0,0.3-0.2,0.5-0.5,0.5H235c-0.3,0-0.5-0.2-0.5-0.5v-32.5
			C234.6,254.1,237,251.4,241.6,248.9z"/>
		<path class="st0" d="M268.3,290.1h-4.8c-1.2,3.8-3.7,7-7.7,9.7c-3.1,1.4-5.5,2.2-7.2,2.2l-0.5-0.2c0-3.7,2.2-7.1,6.5-10.2
			c1.9-2.2,2.9-4.7,2.9-7.5v-15.5c0-3,2.3-5.7,7-8.2l0.2,0.5v22h3.6L268.3,290.1L268.3,290.1z"/>
		<path class="st0" d="M286.6,260.5c6.6,0,11.2,3.7,14,11.1c0.3,1.7,0.5,3,0.5,3.9c0,2-0.6,4.5-1.9,7.5h8.2c0.3,0,0.5,0.2,0.5,0.5
			v6.3c0,0.3-0.2,0.5-0.5,0.5h-41c-0.3,0-0.5-0.2-0.5-0.5v-6.3c0-0.3,0.2-0.5,0.5-0.5h7.5v-0.2c-1.3-2.5-1.9-5-1.9-7.5
			c0-6.8,3.7-11.6,11.1-14.2C284.3,260.7,285.5,260.5,286.6,260.5z M282.5,251.9c0.7,0.7,1.1,1.5,1.1,2.4c0,1-0.4,1.9-1.1,2.5
			c-0.8,0.7-1.6,1.1-2.6,1.1c-1.1,0-1.9-0.4-2.6-1.1c-0.7-0.6-1.1-1.5-1.1-2.5c0-0.9,0.4-1.8,1.1-2.6c0.8-0.6,1.6-0.8,2.6-0.8
			C280.8,250.9,281.7,251.3,282.5,251.9z M279.1,275.4c0.6,4.8,3.1,7.2,7.2,7.2h0.2c4.3,0,6.7-2.5,7.2-7.5c-0.6-4.8-3.1-7.2-7.2-7.2
			h-1c-3.3,0-5.4,2.3-6.5,6.8L279.1,275.4L279.1,275.4z M293.9,251.9c0.7,0.7,1.1,1.5,1.1,2.4c0,1-0.4,1.9-1.1,2.5
			c-0.8,0.7-1.6,1.1-2.6,1.1c-1.1,0-2-0.4-2.6-1.1c-0.7-0.6-1.1-1.5-1.1-2.5c0-0.9,0.4-1.8,1.1-2.6c0.8-0.6,1.6-0.8,2.6-0.8
			C292.3,250.9,293.1,251.3,293.9,251.9z"/>
		<path class="st0" d="M325.2,261.6c7,0,11.9,3.7,14.7,11.1c0.3,1.7,0.5,3,0.5,3.9c0,6.2-3.5,10.8-10.6,13.7
			c-1.8,0.5-3.5,0.7-4.8,0.7c-1,0-3-0.3-5.8-1h-13.3c-0.3,0-0.5-0.2-0.5-0.5v-6.3c0-0.3,0.2-0.5,0.5-0.5h5.3c-1-2.8-1.4-5.1-1.4-6.8
			c0-6.5,3.8-11.2,11.3-14C323.1,261.8,324.4,261.6,325.2,261.6z M317.7,276.6c0,4.2,2.5,6.6,7.5,7.2c4.8-0.7,7.2-3.1,7.2-7.2v-0.5
			c0-4.2-2.5-6.6-7.5-7.2c-3.7,0-6.1,2.1-7.2,6.3V276.6z"/>
		<path class="st0" d="M127.5,321.7h34v0.2c-1.9,13.3-3.6,20-5.1,20c0,0.2-0.2,0.6-0.5,1h8c0.3,0,0.5,0.2,0.5,0.5v6.3
			c0,0.3-0.2,0.5-0.5,0.5h-29.7c-1.4,0-2.3,1-2.4,2.9c0.4,1.3,1.2,1.9,2.4,1.9h7.7c2.8,0,5.3,2.3,7.7,7l-0.5,0.2h-14.5
			c-4.4,0-7.4-2.2-8.9-6.5c-0.3-1.2-0.5-2.4-0.5-3.6c0-4.3,2.4-7.3,7.2-9.2v-0.2c-2.4-2.7-3.6-6-3.6-9.9c-0.2,0-0.8-3.6-1.9-10.8
			L127.5,321.7z M135.4,328.9c0.8,5.8,2,9.5,3.6,11.1c2.7,1.9,4.4,2.9,5.1,2.9h0.7c5-2.2,7.5-5.9,7.5-11.1c0.3,0,0.5-1,0.5-2.9
			l-0.5-0.2h-16.4L135.4,328.9z"/>
		<path class="st0" d="M182.7,320.5c6.6,0,11.2,3.7,14,11.1c0.3,1.7,0.5,3,0.5,3.9c0,6.8-3.7,11.6-11.1,14.2
			c-1.3,0.3-2.7,0.5-4.1,0.5h-19.5c-0.3,0-0.5-0.2-0.5-0.5v-6.3c0-0.3,0.2-0.5,0.5-0.5h7.5v-0.2c-1.3-2.5-1.9-5-1.9-7.5
			c0-6.8,3.7-11.6,11.1-14.2C180.4,320.7,181.6,320.5,182.7,320.5z M175.2,335.4c0.6,4.8,3.1,7.2,7.2,7.2h0.2c4.3,0,6.7-2.5,7.2-7.5
			c-0.6-4.8-3.1-7.2-7.2-7.2h-1c-3.3,0-5.4,2.3-6.5,6.8v0.7H175.2z M185.2,311.9c0.7,0.7,1.1,1.5,1.1,2.4c0,1-0.4,1.9-1.1,2.5
			c-0.8,0.7-1.6,1.1-2.6,1.1c-1.1,0-1.9-0.4-2.6-1.1c-0.7-0.6-1.1-1.5-1.1-2.5c0-0.9,0.4-1.8,1.1-2.6c0.8-0.6,1.6-0.8,2.6-0.8
			C183.5,310.9,184.4,311.3,185.2,311.9z"/>
		<path class="st0" d="M209,308.7l0.2,0.5v28c0.7,3.9,2.7,5.8,5.8,5.8h3.1c0.3,0,0.5,0.2,0.5,0.5v6.3c0,0.3-0.2,0.5-0.5,0.5h-2.2
			c-7.1,0-11.7-3.5-13.7-10.6c-0.2-1.4-0.2-2.5-0.2-3.4V317C202,313.9,204.3,311.2,209,308.7z"/>
		<path class="st0" d="M231.9,320.5l0.2,0.5v15.2c0,7.1-3.5,11.7-10.6,13.7c-1.4,0.2-2.5,0.2-3.4,0.2h-1.4c-0.3,0-0.5-0.2-0.5-0.5
			v-6.3c0-0.3,0.2-0.5,0.5-0.5h2.4c3.9-0.7,5.8-2.7,5.8-5.8v-8.4C224.9,325.7,227.2,323,231.9,320.5z M231.6,311.9
			c0.7,0.7,1.1,1.5,1.1,2.4c0,1-0.4,1.9-1.1,2.5c-0.8,0.7-1.6,1.1-2.6,1.1c-1.1,0-1.9-0.4-2.6-1.1c-0.7-0.6-1.1-1.5-1.1-2.5
			c0-0.9,0.4-1.8,1.1-2.6c0.8-0.6,1.6-0.8,2.6-0.8C229.9,310.9,230.8,311.3,231.6,311.9z"/>
	</g>
</g>
</svg>
